<?xml version="1.0" encoding="UTF-8" standalone="no"?> <!-- Created with Vectornator for iOS (http://vectornator.io/) --><!DOCTYPE svg PUBLIC "-//W3C//DTD SVG 1.1//EN" "http://www.w3.org/Graphics/SVG/1.1/DTD/svg11.dtd">
<svg height="100%" style="fill-rule:nonzero;clip-rule:evenodd;stroke-linecap:round;stroke-linejoin:round;" version="1.1" viewBox="0 0 1024 1024" width="100%" xml:space="preserve" xmlns="http://www.w3.org/2000/svg" xmlns:vectornator="http://vectornator.io" xmlns:xlink="http://www.w3.org/1999/xlink">
<metadata>
<vectornator:setting key="IsTimeLapseWatermarkDisabled" value="false"/>
<vectornator:setting key="UndoHistoryDisabled" value="true"/>
<vectornator:setting key="VNDimensionsVisible" value="true"/>
<vectornator:setting key="VNSnapToGuides" value="true"/>
<vectornator:setting key="WDCMYKEnabledKey" value="false"/>
<vectornator:setting key="WDDisplayWhiteBackground" value="false"/>
<vectornator:setting key="WDDynamicGuides" value="true"/>
<vectornator:setting key="WDGuidesVisible" value="true"/>
<vectornator:setting key="WDIsolateActiveLayer" value="false"/>
<vectornator:setting key="WDOutlineMode" value="false"/>
<vectornator:setting key="WDRulersVisible" value="true"/>
<vectornator:setting key="WDSnapToEdges" value="true"/>
<vectornator:setting key="WDSnapToGrid" value="false"/>
<vectornator:setting key="WDSnapToPoints" value="true"/>
<vectornator:setting key="WDUnits" value="Pixels"/>
</metadata>
<defs>
<filter color-interpolation-filters="sRGB" filterUnits="userSpaceOnUse" height="2090.31" id="83787E77-BE87-4494-A68E-2D0A3517F574" width="2525.09" x="0" y="0">
<feDropShadow dx="34.1081" dy="-0.168655" flood-color="#67798d" height="2090.31" stdDeviation="0" width="2525.09"/>
</filter>
</defs>
<g id="Ebene 3" vectornator:layerName="Ebene 3">
<path d="M512 62.0855L512 62.0855C760.618 62.0855 962.163 262.7 962.163 510.171L962.163 513.829C962.163 761.3 760.618 961.914 512 961.914L512 961.914C263.382 961.914 61.8374 761.3 61.8374 513.829L61.8374 510.171C61.8374 262.7 263.382 62.0855 512 62.0855Z" fill="#003036" opacity="1"/>
<g filter="url(#83787E77-BE87-4494-A68E-2D0A3517F574)" opacity="1" vectornator:shadowAngle="-0.00494469" vectornator:shadowColor="#67798d" vectornator:shadowOffset="34.1085" vectornator:shadowOpacity="0.844595" vectornator:shadowRadius="0">
<g opacity="1">
<g opacity="1">
<path d="M739.311 718.991C739.311 676.663 738.807 647.941 737.8 632.823C736.792 617.706 735.392 607.852 733.6 603.261C731.809 598.67 729.121 595.59 725.538 594.023C721.955 592.455 717.475 591.671 712.1 591.671C709.189 585.848 707.733 580.137 707.733 574.538C707.733 567.82 709.413 563.228 712.772 560.765C716.132 558.301 722.291 557.07 731.249 557.07L786.343 557.07C797.541 557.07 804.931 558.917 808.514 562.613C812.098 566.308 813.889 573.754 813.889 584.952L813.889 667.593C813.889 692.676 815.233 727.614 817.921 772.405C808.738 773.973 798.212 774.757 786.343 774.757C782.759 774.757 776.041 766.918 766.186 751.241C723.186 771.398 680.746 781.476 638.866 781.476C575.262 781.476 528.567 765.407 498.78 733.269C468.994 701.131 454.1 645.645 454.1 566.812C454.1 479.468 472.409 414.744 509.026 372.64C545.643 330.536 599.561 309.484 670.78 309.484C712.66 309.484 743.119 312.619 762.155 318.89C781.192 325.161 790.71 335.239 790.71 349.124C790.71 363.234 785.223 377.119 774.249 390.78C731.473 369.28 690.824 358.53 652.304 358.53C614.679 358.53 585.956 371.688 566.136 398.003C546.315 424.318 536.405 470.51 536.405 536.577C536.405 611.379 546.147 662.722 565.632 690.605C585.116 718.488 617.03 732.429 661.374 732.429C687.577 732.429 713.556 727.95 739.311 718.991Z" fill="#ffffff" opacity="1"/>
<path d="M840.764 1111.7C843.452 1118.42 844.796 1124.92 844.796 1131.19C844.796 1136.79 843.676 1140.7 841.436 1142.94C839.197 1145.18 835.277 1146.3 829.679 1146.3L814.225 1146.3C800.788 1187.06 777.104 1261.64 743.175 1370.04C709.245 1478.43 688.081 1539.74 679.682 1553.96C671.284 1568.19 655.887 1575.3 633.491 1575.3C607.512 1575.3 593.123 1574.4 590.323 1572.61C587.524 1570.82 566.192 1508.28 526.327 1384.99C486.462 1261.7 458.916 1182.14 443.686 1146.3L417.483 1146.3C414.572 1138.69 413.116 1131.63 413.116 1125.14C413.116 1120.44 414.292 1117.02 416.643 1114.89C418.995 1112.77 422.858 1111.7 428.233 1111.7L563.616 1111.7C566.527 1118.42 567.983 1124.92 567.983 1131.19C567.983 1136.79 566.863 1140.7 564.624 1142.94C562.384 1145.18 558.353 1146.3 552.53 1146.3L535.733 1146.3C542.004 1174.75 560.985 1240.98 592.675 1345.01C624.365 1449.04 641.777 1501.05 644.913 1501.05C648.048 1501.05 663.613 1449.32 691.608 1345.85C719.603 1242.38 734.944 1175.87 737.632 1146.3L708.069 1146.3C705.158 1138.69 703.702 1131.63 703.702 1125.14C703.702 1120.44 704.878 1117.02 707.229 1114.89C709.581 1112.77 713.444 1111.7 718.819 1111.7L840.764 1111.7Z" fill="#ffffff" opacity="1"/>
</g>
<g opacity="1">
<path d="M578.156 316.202C580.844 322.921 582.187 329.416 582.187 335.687C582.187 341.286 581.067 345.205 578.828 347.445C576.588 349.684 572.669 350.804 567.07 350.804L551.617 350.804C538.179 391.564 514.496 466.142 480.566 574.538C446.636 682.934 425.472 744.243 417.074 758.464C408.676 772.685 393.278 779.796 370.883 779.796C344.903 779.796 330.514 778.9 327.715 777.109C324.915 775.317 303.583 712.777 263.719 589.487C223.854 466.198 196.307 386.637 181.078 350.804L154.875 350.804C151.963 343.189 150.508 336.135 150.508 329.64C150.508 324.937 151.683 321.521 154.035 319.394C156.386 317.266 160.25 316.202 165.625 316.202L301.008 316.202C303.919 322.921 305.375 329.416 305.375 335.687C305.375 341.286 304.255 345.205 302.015 347.445C299.776 349.684 295.745 350.804 289.922 350.804L273.125 350.804C279.396 379.247 298.376 445.482 330.066 549.511C361.756 653.54 379.169 705.554 382.304 705.554C385.44 705.554 401.005 653.82 429 550.351C456.995 446.882 472.336 380.366 475.023 350.804L445.461 350.804C442.549 343.189 441.094 336.135 441.094 329.64C441.094 324.937 442.269 321.521 444.621 319.394C446.972 317.266 450.836 316.202 456.211 316.202L578.156 316.202Z" fill="#ffffff" opacity="1"/>
</g>
</g>
<path d="M575.672 316.295L608.261 316.295L608.261 337.317L577.853 337.317L575.672 337.317L575.672 316.295Z" fill="#ffffff" opacity="1"/>
</g>
</g>
<g id="Ebene 1" vectornator:layerName="Ebene 1" visibility="hidden">
<g opacity="1">
<g opacity="1">
<g opacity="1">
<path d="M757.624 701.289C757.624 658.961 757.12 630.238 756.113 615.121C755.105 600.004 753.705 590.15 751.913 585.559C750.122 580.968 747.434 577.888 743.851 576.32C740.268 574.753 735.788 573.969 730.413 573.969C727.502 568.146 726.046 562.435 726.046 556.836C726.046 550.117 727.726 545.526 731.085 543.063C734.445 540.599 740.604 539.367 749.562 539.367L804.656 539.367C815.854 539.367 823.244 541.215 826.827 544.91C830.411 548.606 832.202 556.052 832.202 567.25L832.202 649.891C832.202 674.974 833.546 709.912 836.234 754.703C827.051 756.271 816.525 757.055 804.656 757.055C801.072 757.055 794.354 749.216 784.499 733.539C741.499 753.695 699.059 763.774 657.179 763.774C593.575 763.774 546.88 747.705 517.093 715.567C487.307 683.429 472.413 627.943 472.413 549.11C472.413 461.766 490.722 397.042 527.339 354.938C563.956 312.834 617.874 291.781 689.093 291.781C730.973 291.781 761.432 294.917 780.468 301.188C799.505 307.459 809.023 317.537 809.023 331.422C809.023 345.531 803.536 359.417 792.562 373.078C749.786 351.578 709.137 340.828 670.617 340.828C632.992 340.828 604.269 353.986 584.449 380.301C564.628 406.616 554.718 452.807 554.718 518.875C554.718 593.677 564.46 645.02 583.945 672.903C603.429 700.785 635.343 714.727 679.687 714.727C705.89 714.727 731.869 710.248 757.624 701.289Z" fill="#0a2768" opacity="1" stroke="#000000" stroke-linecap="butt" stroke-linejoin="round" stroke-width="20.4111"/>
<path d="M859.077 1094C861.765 1100.72 863.109 1107.21 863.109 1113.48C863.109 1119.08 861.989 1123 859.749 1125.24C857.51 1127.48 853.59 1128.6 847.992 1128.6L832.538 1128.6C819.101 1169.36 795.417 1243.94 761.488 1352.34C727.558 1460.73 706.394 1522.04 697.995 1536.26C689.597 1550.48 674.2 1557.59 651.804 1557.59C625.825 1557.59 611.436 1556.7 608.636 1554.91C605.837 1553.11 584.505 1490.57 544.64 1367.29C504.775 1244 477.229 1164.44 461.999 1128.6L435.796 1128.6C432.885 1120.99 431.429 1113.93 431.429 1107.44C431.429 1102.73 432.605 1099.32 434.956 1097.19C437.308 1095.06 441.171 1094 446.546 1094L581.929 1094C584.84 1100.72 586.296 1107.21 586.296 1113.48C586.296 1119.08 585.176 1123 582.937 1125.24C580.697 1127.48 576.666 1128.6 570.843 1128.6L554.046 1128.6C560.317 1157.04 579.298 1223.28 610.988 1327.31C642.678 1431.34 660.09 1483.35 663.226 1483.35C666.361 1483.35 681.926 1431.62 709.921 1328.15C737.916 1224.68 753.257 1158.16 755.945 1128.6L726.382 1128.6C723.471 1120.99 722.015 1113.93 722.015 1107.44C722.015 1102.73 723.191 1099.32 725.542 1097.19C727.894 1095.06 731.757 1094 737.132 1094L859.077 1094Z" fill="#0a2768" opacity="1" stroke="#000000" stroke-linecap="butt" stroke-linejoin="round" stroke-width="20.4111"/>
</g>
<g opacity="1">
<path d="M596.469 298.5C599.157 305.219 600.5 311.714 600.5 317.985C600.5 323.583 599.38 327.503 597.141 329.742C594.901 331.982 590.982 333.102 585.383 333.102L569.93 333.102C556.492 373.862 532.809 448.44 498.879 556.836C464.949 665.232 443.785 726.541 435.387 740.762C426.989 754.983 411.591 762.094 389.196 762.094C363.216 762.094 348.827 761.198 346.028 759.406C343.228 757.615 321.896 695.074 282.032 571.785C242.167 448.496 214.62 368.935 199.391 333.102L173.188 333.102C170.276 325.487 168.821 318.432 168.821 311.938C168.821 307.235 169.996 303.819 172.348 301.692C174.699 299.564 178.563 298.5 183.938 298.5L319.321 298.5C322.232 305.219 323.688 311.714 323.688 317.985C323.688 323.583 322.568 327.503 320.328 329.742C318.089 331.982 314.058 333.102 308.235 333.102L291.438 333.102C297.709 361.544 316.689 427.78 348.379 531.809C380.069 635.837 397.482 687.852 400.617 687.852C403.753 687.852 419.318 636.117 447.313 532.649C475.308 429.18 490.649 362.664 493.336 333.102L463.774 333.102C460.862 325.487 459.407 318.432 459.407 311.938C459.407 307.235 460.582 303.819 462.934 301.692C465.285 299.564 469.149 298.5 474.524 298.5L596.469 298.5Z" fill="#0a2768" opacity="1" stroke="#000000" stroke-linecap="butt" stroke-linejoin="round" stroke-width="20.4111"/>
</g>
</g>
<path d="M593.985 298.592L626.574 298.592L626.574 319.614L596.166 319.614L593.985 319.614L593.985 298.592Z" fill="#0a2768" opacity="1" stroke="#000000" stroke-linecap="butt" stroke-linejoin="round" stroke-width="20.4111"/>
</g>
</g>
</svg>
